<svg width="20" height="20" xmlns="http://www.w3.org/2000/svg"><path d="M10 0c5.523 0 10 4.477 10 10s-4.477 10-10 10S0 15.523 0 10 4.477 0 10 0Zm-.249 12.715a1.06 1.06 0 0 0-1.069 1.06 1.063 1.063 0 0 0 1.07 1.069c.573 0 1.064-.476 1.068-1.07a1.08 1.08 0 0 0-1.069-1.059Zm.224-8.066c-1.64 0-2.982.876-3.12 2.595l-.01.194h1.73l.016-.166c.11-.8.732-1.185 1.374-1.185.744 0 1.341.496 1.341 1.259 0 .628-.385 1.073-.906 1.429l-.133.087c-.765.475-1.263.944-1.366 2.275 0 .339.25.619.575.667l.1.007h.27l.099-.007a.675.675 0 0 0 .546-.472l.02-.095.008-.1.034-.161c.132-.514.447-.848.935-1.171l.168-.107c.894-.535 1.453-1.264 1.453-2.377 0-1.642-1.278-2.672-3.134-2.672Z" fill="#BEA5FF" fill-rule="evenodd"/></svg>
